<?xml version="1.0" encoding="utf-8"?>
<!DOCTYPE svg PUBLIC "-//W3C//DTD SVG 1.1//EN" "http://www.w3.org/Graphics/SVG/1.1/DTD/svg11.dtd">
<svg version="1.1" xmlns="http://www.w3.org/2000/svg" viewBox="0 0 140 140">

<title>Chrome Logo</title>


<path fill="#FED130" d="M123.47,45.18c6.26,15.66,5.54,34.3-3.64,50.14c-12.12,21.02-35.51,31.51-58.15,28.2l26.73-46.27
c5.88-10.2,2.39-23.27-7.8-29.12c-3.32-1.96-7-2.95-10.61-2.95H123.47z"/>
<path fill="#E64A45" d="M123.47,45.18H70.01c-7.35,0-14.5,3.93-18.43,10.77c-3.85,6.62-3.69,14.59-0.22,20.9l-26.52-45.9
C42.23,8.87,73.7,2.25,98.74,16.71C110.43,23.44,118.85,33.58,123.47,45.18z"/>
<path fill="#51B84E" d="M88.41,77.28l-26.73,46.29c-7.01-1.01-13.93-3.35-20.43-7.09C13.7,100.57,4.28,65.39,20.17,37.88
c1.42-2.48,2.98-4.75,4.66-6.91l26.52,45.93l0.22,0.38c1.8,3.13,4.44,5.86,7.8,7.77C69.53,90.93,82.55,87.44,88.41,77.28z"/>
<path fill="#4793C6" d="M82.55,44.51c12.24,7.04,16.43,22.65,9.37,34.91c-7.05,12.21-22.69,16.41-34.9,9.34
c-4.04-2.3-7.21-5.58-9.37-9.34l-0.27-0.46c-4.16-7.59-4.36-17.11,0.27-25.07c4.73-8.22,13.32-12.84,22.15-12.84
C74.13,41.06,78.55,42.16,82.55,44.51z"/>
<path fill="#FFFFFF" d="M69.76,94.14c-4.8,0-9.55-1.28-13.72-3.69c-4.18-2.39-7.67-5.87-10.08-10.06l-0.26-0.45
c-4.63-8.45-4.52-18.79,0.27-27.03c4.9-8.51,14.03-13.8,23.83-13.8c4.85,0,9.6,1.29,13.73,3.73c6.35,3.65,10.91,9.58,12.81,16.67
c1.9,7.09,0.93,14.51-2.75,20.89C88.7,88.88,79.57,94.14,69.76,94.14z M69.8,43c-8.41,0-16.26,4.55-20.47,11.86
c-4.11,7.08-4.2,15.95-0.25,23.17l0.24,0.42c2.07,3.6,5.06,6.58,8.65,8.63c3.59,2.08,7.67,3.18,11.79,3.18
c8.42,0,16.26-4.52,20.47-11.8c3.16-5.48,3.99-11.85,2.36-17.94c-1.64-6.09-5.55-11.17-11.01-14.32C78.02,44.1,73.96,43,69.8,43z"
/>


</svg>
