<?xml version="1.0" encoding="utf-8"?>
<!DOCTYPE svg PUBLIC "-//W3C//DTD SVG 1.1//EN" "http://www.w3.org/Graphics/SVG/1.1/DTD/svg11.dtd">
<svg version="1.1" xmlns="http://www.w3.org/2000/svg" viewBox="0 0 140 140">

<title>Firefox Logo</title>


<ellipse fill="#1899DC" cx="70.21" cy="63.77" rx="55.22" ry="54.88" />
<path fill="#ED6236" d="M126.6,54.59c-0.76,2.95-0.91,3.92-1.35,4.67c0-0.12-0.03-3.28-1.03-7.74
c-0.49-3.41-1.26-6.59-2.29-9.54c0.25,1.31,0.4,2.42,0.47,3.41c-0.79-2.1-1.8-4.29-3.08-6.46c-0.27-1.04-1.31-4.11-5.09-9.1
c0,0,0.88,1.44,1.19,3.69c-6.21-7.09-25.78-16.49-42.3-16.28c0,0,23.02,5.97,27.21,12.27c0,0-4.91-2.83-10.71-2.02
c4.27,1.68,6.46,4.64,9.53,6.49c2.59,1.64,5.2,3.65,7.29,6.02c-0.83-0.35-1.75-0.71-2.77-1.07c0.34,0.12,2.12,0.82,3.78,2.3
c2.16,2.83,3.53,6.11,3.32,9.85c-1.17-1.81-1.98-3.11-4.44-5.12c2.44,9.48,1.91,24.11-0.07,30.29c-0.57-3.68-1.29-5.51-2.4-6.38
c1.55,12.71-1.33,15.75-7.05,21.87c1.08-3.74,1.52-6.8,1.27-9.21c-6.72,10.05-14.36,15.25-22.92,15.58
c-3.38-0.03-6.58-0.54-9.59-1.52l0,0c-4.41-1.48-8.41-4-11.97-7.59c5.56,0.46,10.63-0.5,15.09-2.76l7.31-4.74
c0.95-0.35,4.04-4.33,0.65-5.96c-3.66-1.9-7.48-1.6-11.46,0.92c-3.79,2.14-7.45,2.06-11-0.22c-2.33-1.6-4.58-3.74-6.75-6.42
l-0.94-1.3c-0.99-2.82,1-4.12,3.11-4.44c0,0,3.88-0.74,8.51,1.65c0.67-4.69-0.43-7.62-1.83-9.46c2.81-2.58,5.32-4.47,7.46-5.69
c0.89-0.47,1.43-1.17,1.66-2.09c0.56-0.22,0.96-0.77,0.96-1.41c0-0.01,0-0.02,0-0.03c0-0.01,0-0.01,0-0.02c0-0.39-0.17-0.75-0.43-1
c-0.28-0.28-0.66-0.46-1.09-0.46c-0.39,0-0.73,0.15-1,0.38c-1.61,0.01-3.23-0.14-4.84-0.46c-0.84-0.24-1.92-0.89-3.22-2.14
l-3.28-3.25l-1.05-0.81c0.03-0.14,0.07-0.33,0.08-0.38c0.46-2.47,1.22-4.58,2.3-6.39l0.24-0.22c1.08-1.79,3.17-3.71,6.23-5.77
c-5.69,0.7-10.84,3.25-15.41,7.64c-3.79-1.38-8.29-1.08-13.46,0.89c-3.25-1.49-2.89-5.77-3.95-12.73
c-4.15,4.06-8.68,11.32-8.54,21.81c0,0-3.79,5.8-4.23,6.62c-1.66,3.12-2.18,4.98-2.27,7.17c0.01-0.02-0.01,0.62,0,0.6
c0.02,0.45,0.07,0.89,0.19,1.3c0,0,1.8-2.44,3.36-2.74c-0.34,0.19-2.03,6.31-2.44,9.75c-1.25,11.3,1.92,22.46,9.56,33.48
C34.59,115.16,49,123.1,66.34,124.15c17.34,1.03,32.13-5.36,44.35-19.13c8.26-10.13,13.33-20.73,15.22-31.8
C127.81,65.61,128.09,60.12,126.6,54.59z M31.39,94.89c-0.09-0.01-0.25-0.14-0.47-0.37c0.17,0.12,0.34,0.24,0.51,0.35L31.39,94.89z
"/>
<path fill="#CE5332" d="M97.86,87.23c0.29-1.77,0.37-3.33,0.23-4.69c-0.02,0.03-0.05,0.06-0.07,0.1c-0.19,1.69-0.59,3.59-1.2,5.71
C97.18,87.96,97.53,87.59,97.86,87.23z"/>
<path fill="#CE5332" d="M49.63,64.09c0,0,3.88-0.74,8.51,1.65c0.24-1.67,0.24-3.11,0.1-4.37c-0.03,0.32-0.05,0.63-0.1,0.96
c-4.63-2.39-8.51-1.65-8.51-1.65c-2.11,0.33-4.1,1.62-3.11,4.44l0.28,0.39C47.43,64.72,48.51,64.27,49.63,64.09z"/>
<path fill="#CE5332" d="M30.92,91.12c0.22,0.23,0.39,0.35,0.47,0.37l0.04-0.02C31.27,91.36,31.1,91.24,30.92,91.12z"/>
<path fill="#CE5332" d="M53.86,29.12c-1.08,1.82-1.84,3.93-2.3,6.39c-0.01,0.05-0.05,0.24-0.08,0.38l0.7,0.54
c0.44-1.43,0.98-2.74,1.68-3.91l0.24-0.22c1.08-1.79,3.17-3.71,6.23-5.77c-1.9,0.23-3.73,0.69-5.5,1.34
c-0.28,0.35-0.53,0.69-0.73,1.03L53.86,29.12z"/>
<path fill="#CE5332" d="M125.92,69.82c-1.9,11.08-6.96,21.67-15.22,31.8c-12.22,13.76-27.01,20.16-44.35,19.13
c-17.34-1.05-31.75-8.99-43.21-23.81c-6.15-8.88-9.4-17.85-9.78-26.91c-0.38,10.22,2.86,20.32,9.78,30.32
c11.46,14.82,25.87,22.76,43.21,23.81c17.34,1.03,32.13-5.36,44.35-19.13c8.26-10.13,13.33-20.73,15.22-31.8
c1.26-5.06,1.79-9.18,1.58-13C127.34,63.1,126.82,66.21,125.92,69.82z"/>
<path fill="#CE5332" d="M14.72,57.74c0.55-2.16,1.11-3.94,1.29-4.04c-1.56,0.29-3.36,2.74-3.36,2.74
c-0.01-0.04-0.02-0.08-0.03-0.13c-0.09,0.54-0.14,1.08-0.16,1.63c0.01-0.02-0.01,0.62,0,0.6c0.02,0.45,0.07,0.89,0.19,1.3
C12.65,59.84,13.6,58.55,14.72,57.74z"/>
<path fill="#CE5332" d="M100.34,26.11c-1.33-2-4.57-3.97-8.36-5.72c-6.15-1.97-12.71-3.22-18.86-3.14c0,0,11.04,2.86,19.22,6.72
C96.88,24.13,100.34,26.11,100.34,26.11z"/>
<path fill="#CE5332" d="M107.17,46.68c-0.25-0.23-0.53-0.46-0.83-0.71c1.02,3.96,1.51,8.81,1.61,13.57
C108.03,55.27,107.8,50.74,107.17,46.68z"/>
<path fill="#CE5332" d="M107.45,37.83c-1.66-1.47-3.44-2.17-3.78-2.3c1.02,0.36,1.94,0.72,2.77,1.07
c-2.09-2.37-4.7-4.38-7.29-6.02c-1.32-0.8-2.49-1.81-3.72-2.83c-1.69-0.36-3.68-0.55-5.8-0.26c4.27,1.68,6.46,4.64,9.53,6.49
c2.59,1.64,5.2,3.65,7.29,6.02c-0.83-0.35-1.75-0.71-2.77-1.07c0.34,0.12,2.12,0.82,3.78,2.3c1.35,1.77,2.39,3.71,2.93,5.84
c0.13,0.2,0.26,0.4,0.39,0.61C110.98,43.94,109.61,40.65,107.45,37.83z"/>
<path fill="#CE5332" d="M104.21,70.19c-0.11-0.11-0.22-0.22-0.33-0.31c0.19,1.53,0.31,2.92,0.37,4.19
C104.3,72.9,104.29,71.62,104.21,70.19z"/>


</svg>
