<svg
  version="1.1"
  xmlns="http://www.w3.org/2000/svg"
  viewBox="0 0 500 500"
  style="border: 1px solid black;">
<symbol id="chrome" viewBox="0 0 140 140">
  <path fill="#FED130" d="M123.47,45.18c6.26,15.66,5.54,34.3-3.64,50.14c-12.12,21.02-35.51,31.51-58.15,28.2l26.73-46.27
  c5.88-10.2,2.39-23.27-7.8-29.12c-3.32-1.96-7-2.95-10.61-2.95H123.47z"/>
  <path fill="#E64A45" d="M123.47,45.18H70.01c-7.35,0-14.5,3.93-18.43,10.77c-3.85,6.62-3.69,14.59-0.22,20.9l-26.52-45.9
  C42.23,8.87,73.7,2.25,98.74,16.71C110.43,23.44,118.85,33.58,123.47,45.18z"/>
  <path fill="#51B84E" d="M88.41,77.28l-26.73,46.29c-7.01-1.01-13.93-3.35-20.43-7.09C13.7,100.57,4.28,65.39,20.17,37.88
  c1.42-2.48,2.98-4.75,4.66-6.91l26.52,45.93l0.22,0.38c1.8,3.13,4.44,5.86,7.8,7.77C69.53,90.93,82.55,87.44,88.41,77.28z"/>
  <path fill="#4793C6" d="M82.55,44.51c12.24,7.04,16.43,22.65,9.37,34.91c-7.05,12.21-22.69,16.41-34.9,9.34
  c-4.04-2.3-7.21-5.58-9.37-9.34l-0.27-0.46c-4.16-7.59-4.36-17.11,0.27-25.07c4.73-8.22,13.32-12.84,22.15-12.84
  C74.13,41.06,78.55,42.16,82.55,44.51z"/>
  <path fill="#FFFFFF" d="M69.76,94.14c-4.8,0-9.55-1.28-13.72-3.69c-4.18-2.39-7.67-5.87-10.08-10.06l-0.26-0.45
  c-4.63-8.45-4.52-18.79,0.27-27.03c4.9-8.51,14.03-13.8,23.83-13.8c4.85,0,9.6,1.29,13.73,3.73c6.35,3.65,10.91,9.58,12.81,16.67
  c1.9,7.09,0.93,14.51-2.75,20.89C88.7,88.88,79.57,94.14,69.76,94.14z M69.8,43c-8.41,0-16.26,4.55-20.47,11.86
  c-4.11,7.08-4.2,15.95-0.25,23.17l0.24,0.42c2.07,3.6,5.06,6.58,8.65,8.63c3.59,2.08,7.67,3.18,11.79,3.18
  c8.42,0,16.26-4.52,20.47-11.8c3.16-5.48,3.99-11.85,2.36-17.94c-1.64-6.09-5.55-11.17-11.01-14.32C78.02,44.1,73.96,43,69.8,43z"
  />
</symbol>
<symbol id="firefox" viewBox="0 0 140 140">
  <ellipse fill="#1899DC" cx="70.21" cy="63.77" rx="55.22" ry="54.88" />
  <path fill="#ED6236" d="M126.6,54.59c-0.76,2.95-0.91,3.92-1.35,4.67c0-0.12-0.03-3.28-1.03-7.74
  c-0.49-3.41-1.26-6.59-2.29-9.54c0.25,1.31,0.4,2.42,0.47,3.41c-0.79-2.1-1.8-4.29-3.08-6.46c-0.27-1.04-1.31-4.11-5.09-9.1
  c0,0,0.88,1.44,1.19,3.69c-6.21-7.09-25.78-16.49-42.3-16.28c0,0,23.02,5.97,27.21,12.27c0,0-4.91-2.83-10.71-2.02
  c4.27,1.68,6.46,4.64,9.53,6.49c2.59,1.64,5.2,3.65,7.29,6.02c-0.83-0.35-1.75-0.71-2.77-1.07c0.34,0.12,2.12,0.82,3.78,2.3
  c2.16,2.83,3.53,6.11,3.32,9.85c-1.17-1.81-1.98-3.11-4.44-5.12c2.44,9.48,1.91,24.11-0.07,30.29c-0.57-3.68-1.29-5.51-2.4-6.38
  c1.55,12.71-1.33,15.75-7.05,21.87c1.08-3.74,1.52-6.8,1.27-9.21c-6.72,10.05-14.36,15.25-22.92,15.58
  c-3.38-0.03-6.58-0.54-9.59-1.52l0,0c-4.41-1.48-8.41-4-11.97-7.59c5.56,0.46,10.63-0.5,15.09-2.76l7.31-4.74
  c0.95-0.35,4.04-4.33,0.65-5.96c-3.66-1.9-7.48-1.6-11.46,0.92c-3.79,2.14-7.45,2.06-11-0.22c-2.33-1.6-4.58-3.74-6.75-6.42
  l-0.94-1.3c-0.99-2.82,1-4.12,3.11-4.44c0,0,3.88-0.74,8.51,1.65c0.67-4.69-0.43-7.62-1.83-9.46c2.81-2.58,5.32-4.47,7.46-5.69
  c0.89-0.47,1.43-1.17,1.66-2.09c0.56-0.22,0.96-0.77,0.96-1.41c0-0.01,0-0.02,0-0.03c0-0.01,0-0.01,0-0.02c0-0.39-0.17-0.75-0.43-1
  c-0.28-0.28-0.66-0.46-1.09-0.46c-0.39,0-0.73,0.15-1,0.38c-1.61,0.01-3.23-0.14-4.84-0.46c-0.84-0.24-1.92-0.89-3.22-2.14
  l-3.28-3.25l-1.05-0.81c0.03-0.14,0.07-0.33,0.08-0.38c0.46-2.47,1.22-4.58,2.3-6.39l0.24-0.22c1.08-1.79,3.17-3.71,6.23-5.77
  c-5.69,0.7-10.84,3.25-15.41,7.64c-3.79-1.38-8.29-1.08-13.46,0.89c-3.25-1.49-2.89-5.77-3.95-12.73
  c-4.15,4.06-8.68,11.32-8.54,21.81c0,0-3.79,5.8-4.23,6.62c-1.66,3.12-2.18,4.98-2.27,7.17c0.01-0.02-0.01,0.62,0,0.6
  c0.02,0.45,0.07,0.89,0.19,1.3c0,0,1.8-2.44,3.36-2.74c-0.34,0.19-2.03,6.31-2.44,9.75c-1.25,11.3,1.92,22.46,9.56,33.48
  C34.59,115.16,49,123.1,66.34,124.15c17.34,1.03,32.13-5.36,44.35-19.13c8.26-10.13,13.33-20.73,15.22-31.8
  C127.81,65.61,128.09,60.12,126.6,54.59z M31.39,94.89c-0.09-0.01-0.25-0.14-0.47-0.37c0.17,0.12,0.34,0.24,0.51,0.35L31.39,94.89z
  "/>
  <path fill="#CE5332" d="M97.86,87.23c0.29-1.77,0.37-3.33,0.23-4.69c-0.02,0.03-0.05,0.06-0.07,0.1c-0.19,1.69-0.59,3.59-1.2,5.71
  C97.18,87.96,97.53,87.59,97.86,87.23z"/>
  <path fill="#CE5332" d="M49.63,64.09c0,0,3.88-0.74,8.51,1.65c0.24-1.67,0.24-3.11,0.1-4.37c-0.03,0.32-0.05,0.63-0.1,0.96
  c-4.63-2.39-8.51-1.65-8.51-1.65c-2.11,0.33-4.1,1.62-3.11,4.44l0.28,0.39C47.43,64.72,48.51,64.27,49.63,64.09z"/>
  <path fill="#CE5332" d="M30.92,91.12c0.22,0.23,0.39,0.35,0.47,0.37l0.04-0.02C31.27,91.36,31.1,91.24,30.92,91.12z"/>
  <path fill="#CE5332" d="M53.86,29.12c-1.08,1.82-1.84,3.93-2.3,6.39c-0.01,0.05-0.05,0.24-0.08,0.38l0.7,0.54
  c0.44-1.43,0.98-2.74,1.68-3.91l0.24-0.22c1.08-1.79,3.17-3.71,6.23-5.77c-1.9,0.23-3.73,0.69-5.5,1.34
  c-0.28,0.35-0.53,0.69-0.73,1.03L53.86,29.12z"/>
  <path fill="#CE5332" d="M125.92,69.82c-1.9,11.08-6.96,21.67-15.22,31.8c-12.22,13.76-27.01,20.16-44.35,19.13
  c-17.34-1.05-31.75-8.99-43.21-23.81c-6.15-8.88-9.4-17.85-9.78-26.91c-0.38,10.22,2.86,20.32,9.78,30.32
  c11.46,14.82,25.87,22.76,43.21,23.81c17.34,1.03,32.13-5.36,44.35-19.13c8.26-10.13,13.33-20.73,15.22-31.8
  c1.26-5.06,1.79-9.18,1.58-13C127.34,63.1,126.82,66.21,125.92,69.82z"/>
  <path fill="#CE5332" d="M14.72,57.74c0.55-2.16,1.11-3.94,1.29-4.04c-1.56,0.29-3.36,2.74-3.36,2.74
  c-0.01-0.04-0.02-0.08-0.03-0.13c-0.09,0.54-0.14,1.08-0.16,1.63c0.01-0.02-0.01,0.62,0,0.6c0.02,0.45,0.07,0.89,0.19,1.3
  C12.65,59.84,13.6,58.55,14.72,57.74z"/>
  <path fill="#CE5332" d="M100.34,26.11c-1.33-2-4.57-3.97-8.36-5.72c-6.15-1.97-12.71-3.22-18.86-3.14c0,0,11.04,2.86,19.22,6.72
  C96.88,24.13,100.34,26.11,100.34,26.11z"/>
  <path fill="#CE5332" d="M107.17,46.68c-0.25-0.23-0.53-0.46-0.83-0.71c1.02,3.96,1.51,8.81,1.61,13.57
  C108.03,55.27,107.8,50.74,107.17,46.68z"/>
  <path fill="#CE5332" d="M107.45,37.83c-1.66-1.47-3.44-2.17-3.78-2.3c1.02,0.36,1.94,0.72,2.77,1.07
  c-2.09-2.37-4.7-4.38-7.29-6.02c-1.32-0.8-2.49-1.81-3.72-2.83c-1.69-0.36-3.68-0.55-5.8-0.26c4.27,1.68,6.46,4.64,9.53,6.49
  c2.59,1.64,5.2,3.65,7.29,6.02c-0.83-0.35-1.75-0.71-2.77-1.07c0.34,0.12,2.12,0.82,3.78,2.3c1.35,1.77,2.39,3.71,2.93,5.84
  c0.13,0.2,0.26,0.4,0.39,0.61C110.98,43.94,109.61,40.65,107.45,37.83z"/>
  <path fill="#CE5332" d="M104.21,70.19c-0.11-0.11-0.22-0.22-0.33-0.31c0.19,1.53,0.31,2.92,0.37,4.19
  C104.3,72.9,104.29,71.62,104.21,70.19z"/>
</symbol>

<symbol id="nodejs" viewBox="0 0 456 284">
<g><path
    d="M225.953,279.054c-1.46,0-2.912-0.381-4.19-1.121l-13.339-7.892c-1.991-1.115-1.018-1.509-0.362-1.738   c2.657-0.922,3.195-1.135,6.031-2.743c0.295-0.166,0.687-0.103,0.992,0.076l10.247,6.084c0.372,0.206,0.896,0.206,1.237,0   l39.95-23.058c0.372-0.212,0.61-0.64,0.61-1.081v-46.103c0-0.451-0.239-0.872-0.62-1.101l-39.933-23.038   c-0.368-0.216-0.859-0.216-1.231,0l-39.923,23.045c-0.388,0.222-0.634,0.657-0.634,1.094v46.103c0,0.441,0.245,0.859,0.63,1.068   l10.944,6.323c5.938,2.969,9.573-0.528,9.573-4.041v-45.52c0-0.643,0.518-1.151,1.161-1.151h5.066c0.634,0,1.158,0.508,1.158,1.151   v45.52c0,7.925-4.316,12.47-11.829,12.47c-2.309,0-4.127,0-9.202-2.501l-10.476-6.031c-2.587-1.496-4.19-4.293-4.19-7.288v-46.103   c0-2.995,1.602-5.792,4.19-7.281l39.95-23.085c2.528-1.43,5.888-1.43,8.396,0l39.947,23.085c2.587,1.496,4.196,4.286,4.196,7.281   v46.103c0,2.995-1.609,5.782-4.196,7.288l-39.947,23.065C228.882,278.673,227.433,279.054,225.953,279.054z"
    fill="#699F63"/><path
    d="M238.293,247.292c-17.482,0-21.144-8.024-21.144-14.755c0-0.64,0.514-1.151,1.155-1.151h5.165   c0.577,0,1.058,0.415,1.148,0.979c0.78,5.258,3.105,7.912,13.677,7.912c8.416,0,11.999-1.904,11.999-6.369   c0-2.574-1.015-4.485-14.095-5.766c-10.93-1.081-17.691-3.496-17.691-12.241c0-8.061,6.794-12.868,18.186-12.868   c12.798,0,19.131,4.442,19.933,13.972c0.03,0.328-0.086,0.644-0.305,0.889c-0.219,0.229-0.524,0.368-0.846,0.368h-5.185   c-0.537,0-1.012-0.381-1.121-0.902c-1.244-5.533-4.269-7.301-12.476-7.301c-9.189,0-10.257,3.201-10.257,5.599   c0,2.906,1.261,3.752,13.667,5.394c12.277,1.622,18.109,3.921,18.109,12.549C258.21,242.306,250.952,247.292,238.293,247.292z"
    fill="#699F63"/></g>
<g><path
    d="M295.899,198.941c0,4.236-3.463,7.699-7.699,7.699c-4.197,0-7.699-3.422-7.699-7.699   c0-4.359,3.586-7.701,7.699-7.701C292.356,191.24,295.899,194.582,295.899,198.941z M281.744,198.919   c0,3.586,2.892,6.479,6.435,6.479c3.586,0,6.479-2.954,6.479-6.479c0-3.584-2.932-6.436-6.479-6.436   C284.676,192.484,281.744,195.293,281.744,198.919z M285.307,194.622h2.976c1.018,0,3.015,0,3.015,2.282   c0,1.589-1.018,1.914-1.632,2.118c1.184,0.082,1.264,0.856,1.426,1.956c0.083,0.692,0.206,1.874,0.448,2.281h-1.831   c-0.043-0.406-0.328-2.607-0.328-2.728c-0.119-0.49-0.285-0.733-0.895-0.733h-1.506v3.461h-1.672v-8.637H285.307z M286.939,198.41   h1.343c1.098,0,1.304-0.773,1.304-1.221c0-1.183-0.816-1.183-1.264-1.183h-1.383L286.939,198.41L286.939,198.41z"
    fill="#699F63"/></g><path
    d="M102.243,98.677c0-1.841-0.969-3.533-2.558-4.445L57.33,69.857c-0.716-0.421-1.519-0.64-2.332-0.674  c-0.073,0-0.378,0-0.438,0c-0.809,0.033-1.612,0.252-2.339,0.674L9.866,94.232c-1.579,0.912-2.561,2.604-2.561,4.445l0.093,65.635  c0,0.912,0.474,1.762,1.277,2.209c0.786,0.471,1.758,0.471,2.541,0l25.172-14.414c1.592-0.945,2.561-2.614,2.561-4.438v-30.665  c0-1.828,0.968-3.52,2.554-4.428l10.718-6.173c0.799-0.461,1.672-0.687,2.564-0.687c0.872,0,1.768,0.226,2.544,0.687l10.715,6.173  c1.586,0.909,2.558,2.601,2.558,4.428v30.665c0,1.824,0.982,3.503,2.564,4.438l25.165,14.414c0.789,0.471,1.775,0.471,2.558,0  c0.78-0.448,1.271-1.297,1.271-2.209L102.243,98.677z"
    fill="#333333"/><path
    d="M306.04,8.451c-0.793-0.441-1.76-0.431-2.543,0.028c-0.781,0.46-1.262,1.299-1.262,2.206v65  c0,0.639-0.342,1.231-0.894,1.551c-0.554,0.32-1.237,0.32-1.792,0l-10.608-6.112c-1.583-0.912-3.53-0.91-5.112,0.002l-42.372,24.453  c-1.584,0.914-2.559,2.603-2.559,4.43v48.916c0,1.828,0.975,3.516,2.558,4.432l42.37,24.471c1.584,0.914,3.534,0.914,5.118,0  l42.376-24.471c1.583-0.915,2.558-2.604,2.558-4.432V26.989c0-1.854-1.003-3.565-2.624-4.469L306.04,8.451z M302.109,132.853  c0,0.456-0.244,0.879-0.64,1.106l-14.548,8.386c-0.395,0.227-0.882,0.227-1.277,0l-14.548-8.386c-0.396-0.227-0.64-0.65-0.64-1.106  v-16.799c0-0.456,0.244-0.879,0.639-1.108l14.548-8.403c0.396-0.229,0.884-0.229,1.28,0l14.548,8.403  c0.395,0.229,0.639,0.652,0.639,1.108L302.109,132.853L302.109,132.853z"
    fill="#333333"/>
<g><path
    d="M447.131,115.615c1.576-0.915,2.546-2.601,2.546-4.424V99.337c0-1.823-0.97-3.51-2.548-4.425L405.03,70.469   c-1.584-0.921-3.54-0.922-5.127-0.007l-42.356,24.453c-1.583,0.914-2.558,2.602-2.558,4.43v48.903c0,1.839,0.987,3.536,2.584,4.445   l42.093,23.985c1.552,0.886,3.455,0.896,5.017,0.028l25.46-14.151c0.808-0.449,1.311-1.297,1.315-2.219   c0.007-0.922-0.484-1.776-1.284-2.236l-42.625-24.465c-0.796-0.456-1.285-1.304-1.285-2.22v-15.326c0-0.914,0.487-1.76,1.28-2.216   l13.266-7.648c0.789-0.456,1.765-0.456,2.554,0l13.273,7.648c0.793,0.456,1.28,1.302,1.28,2.216v12.058   c0,0.916,0.49,1.762,1.282,2.218c0.793,0.458,1.77,0.454,2.561-0.005L447.131,115.615z"
    fill="#333333"/><path
    d="M401.842,113.324c0.304-0.176,0.678-0.176,0.982,0l8.13,4.69c0.304,0.176,0.491,0.499,0.491,0.851v9.388   c0,0.352-0.187,0.675-0.491,0.851l-8.13,4.69c-0.304,0.176-0.678,0.176-0.982,0l-8.124-4.69c-0.304-0.176-0.491-0.499-0.491-0.851   v-9.388c0-0.352,0.187-0.675,0.491-0.851L401.842,113.324z"
    fill="#699F63"/></g>
<g>
    <g>
        <linearGradient gradientTransform="matrix(1 0 0 -1 0 288.11)" gradientUnits="userSpaceOnUse" id="XMLID_2_" x1="187.702" x2="149.6371" y1="199.2852" y2="121.6329"><stop offset="0" style="stop-color:#41873F"/><stop offset="0.3288" style="stop-color:#418B3D"/><stop offset="0.6352" style="stop-color:#419637"/><stop offset="0.9319" style="stop-color:#3FA92D"/><stop offset="1" style="stop-color:#3FAE2A"/></linearGradient><path
            d="M173.12,70.717c-1.574-0.909-3.514-0.909-5.087,0l-42.134,24.314    c-1.576,0.909-2.546,2.588-2.546,4.408v48.666c0,1.818,0.97,3.497,2.544,4.408l42.134,24.334c1.575,0.909,3.515,0.909,5.091,0    l42.124-24.334c1.574-0.91,2.543-2.59,2.543-4.408V99.437c0-1.818-0.97-3.497-2.545-4.406L173.12,70.717z"
            fill="url(#XMLID_2_)"
            id="XMLID_143_"/></g>
    <g>
        <defs><path
            d="M173.12,70.717c-1.574-0.909-3.514-0.909-5.087,0l-42.134,24.314c-1.576,0.909-2.546,2.588-2.546,4.408     v48.666c0,1.818,0.97,3.497,2.544,4.408l42.134,24.334c1.575,0.909,3.515,0.909,5.091,0l42.124-24.334     c1.574-0.91,2.543-2.59,2.543-4.408V99.437c0-1.818-0.97-3.497-2.545-4.406L173.12,70.717z"
            id="SVGID_1_"/></defs>
        <clipPath id="SVGID_2_"><use overflow="visible" xlink:href="#SVGID_1_"/></clipPath>
        <g clip-path="url(#SVGID_2_)"><path d="M167.944,70.717l-42.222,24.314C124.146,95.94,123,97.619,123,99.439v48.666     c0,1.203,0.514,2.339,1.313,3.238l47.44-81.152C170.479,69.877,169.101,70.049,167.944,70.717z" fill="none"/><path d="M171.988,177.339c0.41-0.113,0.81-0.275,1.186-0.492l42.177-24.334c1.574-0.91,2.649-2.59,2.649-4.408     V99.437c0-1.338-0.598-2.598-1.54-3.534L171.988,177.339z" fill="none"/>
            <linearGradient gradientTransform="matrix(1 0 0 -1 0 288.11)" gradientUnits="userSpaceOnUse" id="SVGID_3_" x1="164.1574" x2="270.9646" y1="158.647" y2="237.5619"><stop offset="0.1376" style="stop-color:#41873F"/><stop offset="0.4032" style="stop-color:#54A044"/><stop offset="0.7136" style="stop-color:#66B848"/><stop offset="0.9081" style="stop-color:#6CC04A"/></linearGradient><path
                d="M215.327,95.031l-42.252-24.314c-0.417-0.241-0.863-0.413-1.322-0.526l-47.44,81.152     c0.409,0.46,0.888,0.861,1.42,1.169l42.323,24.334c1.199,0.692,2.624,0.854,3.931,0.492l44.473-81.436     C216.122,95.568,215.743,95.271,215.327,95.031z"
                fill="url(#SVGID_3_)"/></g>
    </g>
    <g>
        <defs><path
            d="M173.12,70.717c-1.574-0.909-3.514-0.909-5.087,0l-42.134,24.314c-1.576,0.909-2.546,2.588-2.546,4.408     v48.666c0,1.818,0.97,3.497,2.544,4.408l42.134,24.334c1.575,0.909,3.515,0.909,5.091,0l42.124-24.334     c1.574-0.91,2.543-2.59,2.543-4.408V99.437c0-1.818-0.97-3.497-2.545-4.406L173.12,70.717z"
            id="SVGID_4_"/></defs>
        <clipPath id="SVGID_5_"><use overflow="visible" xlink:href="#SVGID_4_"/></clipPath>
        <g clip-path="url(#SVGID_5_)"><path d="M218,148.105V99.437c0-1.818-1.098-3.497-2.673-4.406l-42.252-24.314c-0.485-0.28-1.011-0.463-1.551-0.571     l46.317,79.128C217.94,148.895,218,148.505,218,148.105z" fill="none"/><path d="M125.722,95.031C124.146,95.94,123,97.619,123,99.439v48.666c0,1.818,1.16,3.497,2.733,4.408l42.323,24.334     c0.995,0.574,2.146,0.784,3.256,0.632l-45.337-82.594L125.722,95.031z" fill="none"/>
            <linearGradient gradientTransform="matrix(1 0 0 -1 0 288.11)" gradientUnits="userSpaceOnUse" id="SVGID_6_" x1="121.8623" x2="219.2793" y1="226.1655" y2="226.1655"><stop offset="0.0919" style="stop-color:#6CC04A"/><stop offset="0.2864" style="stop-color:#66B848"/><stop offset="0.5968" style="stop-color:#54A044"/><stop offset="0.8624" style="stop-color:#41873F"/></linearGradient><polygon fill="url(#SVGID_6_)" points="166.627,61.779 166.047,62.11 166.821,62.11    "/>
            <linearGradient gradientTransform="matrix(1 0 0 -1 0 288.11)" gradientUnits="userSpaceOnUse" id="SVGID_7_" x1="121.8623" x2="219.2793" y1="164.3476" y2="164.3476"><stop offset="0.0919" style="stop-color:#6CC04A"/><stop offset="0.2864" style="stop-color:#66B848"/><stop offset="0.5968" style="stop-color:#54A044"/><stop offset="0.8624" style="stop-color:#41873F"/></linearGradient><path d="M215.351,152.513c1.228-0.71,2.144-1.891,2.491-3.238l-46.317-79.128     c-1.209-0.241-2.492-0.058-3.581,0.571l-41.968,24.168l45.337,82.594c0.647-0.088,1.281-0.298,1.861-0.632L215.351,152.513z" fill="url(#SVGID_7_)"/>
            <linearGradient gradientTransform="matrix(1 0 0 -1 0 288.11)" gradientUnits="userSpaceOnUse" id="SVGID_8_" x1="121.8623" x2="219.2793" y1="136.5375" y2="136.5375"><stop offset="0.0919" style="stop-color:#6CC04A"/><stop offset="0.2864" style="stop-color:#66B848"/><stop offset="0.5968" style="stop-color:#54A044"/><stop offset="0.8624" style="stop-color:#41873F"/></linearGradient><polygon fill="url(#SVGID_8_)" points="219.279,151.73 219,151.253 219,151.892    "/>
            <linearGradient gradientTransform="matrix(1 0 0 -1 0 288.11)" gradientUnits="userSpaceOnUse" id="SVGID_9_" x1="121.8623" x2="219.2793" y1="123.968" y2="123.968"><stop offset="0.0919" style="stop-color:#6CC04A"/><stop offset="0.2864" style="stop-color:#66B848"/><stop offset="0.5968" style="stop-color:#54A044"/><stop offset="0.8624" style="stop-color:#41873F"/></linearGradient><path d="M215.351,152.513l-42.177,24.334c-0.58,0.335-1.214,0.544-1.861,0.632l0.84,1.53L219,151.892     v-0.639l-1.158-1.978C217.495,150.622,216.579,151.802,215.351,152.513z" fill="url(#SVGID_9_)"/>
            <linearGradient gradientTransform="matrix(1 0 0 -1 0 288.11)" gradientUnits="userSpaceOnUse" id="SVGID_10_" x1="233.4718" x2="173.3912" y1="201.5876" y2="79.0232"><stop offset="0" style="stop-color:#41873F"/><stop offset="0.3288" style="stop-color:#418B3D"/><stop offset="0.6352" style="stop-color:#419637"/><stop offset="0.9319" style="stop-color:#3FA92D"/><stop offset="1" style="stop-color:#3FAE2A"/></linearGradient><path d="M215.351,152.513l-42.177,24.334c-0.58,0.335-1.214,0.544-1.861,0.632l0.84,1.53L219,151.892     v-0.639l-1.158-1.978C217.495,150.622,216.579,151.802,215.351,152.513z" fill="url(#SVGID_10_)"/></g>
    </g>
</g>
</symbol>

<!-- Left nodejs -->
<use xlink:href="#nodejs" x="140" y="0" height="80" width="80"/>
<!-- Right chrome -->
<use xlink:href="#chrome" x="340" y="40" height="60" width="60"/>
<!-- Left chrome -->
<use xlink:href="#chrome" x="10" y="150" height="60" width="60"/>
<!-- Right nodejs -->
<use xlink:href="#nodejs" x="410" y="220" height="80" width="80"/>
<!-- Left firefox -->
<use xlink:href="#firefox" x="60" y="360" height="60" width="60"/>
<!-- Right firefox -->
<use xlink:href="#firefox" x="280" y="420" height="60" width="60"/>
<g style="stroke-width: 1px; stroke: black;">
  <line x1="185" y1="70" x2="70" y2="195" /> <!-- Left nodejs & Left chrome -->
  <line x1="185" y1="70" x2="110" y2="360" /> <!-- Left nodejs & Left firefox -->
  <line x1="185" y1="70" x2="300" y2="420" /> <!-- Left nodejs & Right firefox -->
  <line x1="185" y1="70" x2="400" y2="265" /> <!-- Left nodejs & Right nodejs -->
  <line x1="185" y1="70" x2="350" y2="95" /> <!-- Left nodejs & Right chrome -->

  <line x1="70" y1="195" x2="110" y2="360" /> <!-- Left chrome & Left firefox -->
  <line x1="70" y1="195" x2="300" y2="420" /> <!-- Left chrome & Right firefox -->
  <line x1="70" y1="195" x2="400" y2="265" /> <!-- Left chrome & Right nodejs -->
  <line x1="70" y1="195" x2="350" y2="95" /> <!-- Left chrome & Right chrome -->

  <line x1="110" y1="360" x2="300" y2="420" /> <!-- Left firefox & Right firefox -->
  <line x1="110" y1="360" x2="400" y2="265" /> <!-- Left firefox & Right nodejs -->
  <line x1="110" y1="360" x2="350" y2="95" /> <!-- Left firefox & Right chrome -->

  <line x1="300" y1="420" x2="400" y2="265" /> <!-- Right firefox & Right nodejs -->
  <line x1="300" y1="420" x2="350" y2="95" /> <!-- Right firefox & Right chrome -->

  <line x1="400" y1="265" x2="350" y2="95" /> <!-- Right nodejs & Right chrome -->
</g>
</svg>
